<?xml version="1.0" encoding="UTF-8" standalone="no"?>
<svg
   width="22"
   height="20"
   viewBox="0 0 22 20"
   fill="none"
   version="1.1"
   id="svg4"
   sodipodi:docname="settings.svg"
   xmlns:inkscape="http://www.inkscape.org/namespaces/inkscape"
   xmlns:sodipodi="http://sodipodi.sourceforge.net/DTD/sodipodi-0.dtd"
   xmlns="http://www.w3.org/2000/svg"
   xmlns:svg="http://www.w3.org/2000/svg">
  <sodipodi:namedview
     id="namedview5"
     pagecolor="#ffffff"
     bordercolor="#000000"
     borderopacity="0.25"
     inkscape:showpageshadow="2"
     inkscape:pageopacity="0.0"
     inkscape:pagecheckerboard="0"
     inkscape:deskcolor="#d1d1d1"
     showgrid="false" />
  <defs
     id="defs8" />
  <path
     d="m 8.2502,20 -0.4,-3.2 C 7.63353,16.7167 7.42953,16.6167 7.2382,16.5 7.0462,16.3833 6.85853,16.2583 6.6752,16.125 l -2.975,1.25 -2.750005,-4.75 2.575005,-1.95 C 3.50853,10.5583 3.5002,10.4457 3.5002,10.337 V 9.662 c 0,-0.108 0.00833,-0.22033 0.025,-0.337 L 0.950195,7.375 3.7002,2.625 6.6752,3.875 C 6.85853,3.74167 7.0502,3.61667 7.2502,3.5 c 0.2,-0.11667 0.4,-0.21667 0.6,-0.3 l 0.4,-3.2 h 5.5 l 0.4,3.2 c 0.2167,0.08333 0.421,0.18333 0.613,0.3 0.1913,0.11667 0.3787,0.24167 0.562,0.375 l 2.975,-1.25 2.75,4.75 -2.575,1.95 c 0.0167,0.11667 0.025,0.229 0.025,0.337 v 0.675 c 0,0.1087 -0.0167,0.2213 -0.05,0.338 l 2.575,1.95 -2.75,4.75 -2.95,-1.25 c -0.1833,0.1333 -0.375,0.2583 -0.575,0.375 -0.2,0.1167 -0.4,0.2167 -0.6,0.3 l -0.4,3.2 z m 2.8,-6.5 c 0.9667,0 1.7917,-0.3417 2.475,-1.025 0.6833,-0.6833 1.025,-1.5083 1.025,-2.475 0,-0.96667 -0.3417,-1.79167 -1.025,-2.475 C 12.8419,6.84167 12.0169,6.5 11.0502,6.5 10.0669,6.5 9.23753,6.84167 8.5622,7.525 7.88753,8.20833 7.5502,9.03333 7.5502,10 c 0,0.9667 0.33733,1.7917 1.012,2.475 0.67533,0.6833 1.5047,1.025 2.488,1.025 z m 0,-2 c -0.4167,0 -0.7707,-0.146 -1.062,-0.438 -0.292,-0.2913 -0.438,-0.6453 -0.438,-1.062 0,-0.41667 0.146,-0.77067 0.438,-1.062 0.2913,-0.292 0.6453,-0.438 1.062,-0.438 0.4167,0 0.771,0.146 1.063,0.438 0.2913,0.29133 0.437,0.64533 0.437,1.062 0,0.4167 -0.1457,0.7707 -0.437,1.062 -0.292,0.292 -0.6463,0.438 -1.063,0.438 z m -1.05,6.5 h 1.975 l 0.35,-2.65 c 0.5167,-0.1333 0.996,-0.3293 1.438,-0.588 0.4413,-0.258 0.8453,-0.5703 1.212,-0.937 l 2.475,1.025 0.975,-1.7 -2.15,-1.625 c 0.0833,-0.2333 0.1417,-0.4793 0.175,-0.738 0.0333,-0.258 0.05,-0.5203 0.05,-0.787 0,-0.26667 -0.0167,-0.52933 -0.05,-0.788 -0.0333,-0.258 -0.0917,-0.50367 -0.175,-0.737 l 2.15,-1.625 -0.975,-1.7 -2.475,1.05 C 14.6085,5.81667 14.2045,5.49567 13.7632,5.237 13.3212,4.979 12.8419,4.78333 12.3252,4.65 L 12.0002,2 h -1.975 l -0.35,2.65 C 9.15853,4.78333 8.67953,4.979 8.2382,5.237 7.7962,5.49567 7.39186,5.80833 7.0252,6.175 L 4.5502,5.15 3.5752,6.85 5.72519,8.45 C 5.64186,8.7 5.58353,8.95 5.5502,9.2 c -0.03334,0.25 -0.05,0.51667 -0.05,0.8 0,0.2667 0.01666,0.525 0.05,0.775 0.03333,0.25 0.09166,0.5 0.17499,0.75 l -2.14999,1.625 0.975,1.7 2.475,-1.05 c 0.36666,0.3833 0.771,0.704 1.213,0.962 0.44133,0.2587 0.92033,0.4547 1.437,0.588 z"
     fill="#0d1f3c"
     id="path2" />
</svg>
